<mxfile host="app.diagrams.net" modified="2024-04-25T18:25:47.487Z" agent="Mozilla/5.0 (X11; Linux x86_64; rv:125.0) Gecko/20100101 Firefox/125.0" etag="kBm9BfYEqPZMCslRQhn9" version="24.3.0" type="device">
  <diagram name="Page-1" id="5d7acffa-a066-3a61-03fe-96351882024d">
    <mxGraphModel dx="2074" dy="1108" grid="1" gridSize="10" guides="1" tooltips="1" connect="1" arrows="1" fold="1" page="1" pageScale="1" pageWidth="1100" pageHeight="850" background="#ffffff" math="0" shadow="0">
      <root>
        <mxCell id="0" />
        <mxCell id="1" parent="0" />
        <mxCell id="21ea969265ad0168-6" value="&lt;font face=&quot;Courier New&quot;&gt;TestPlan.record_all&lt;/font&gt;" style="swimlane;html=1;fontStyle=0;childLayout=stackLayout;horizontal=1;startSize=26;fillColor=#e0e0e0;horizontalStack=0;resizeParent=1;resizeLast=0;collapsible=1;marginBottom=0;swimlaneFillColor=#ffffff;align=center;rounded=1;shadow=0;comic=0;labelBackgroundColor=none;strokeWidth=1;fontFamily=Verdana;fontSize=12" parent="1" vertex="1">
          <mxGeometry x="330" y="50" width="160" height="70" as="geometry" />
        </mxCell>
        <mxCell id="21ea969265ad0168-7" value="Record results for all enabled test benches" style="text;html=1;strokeColor=none;fillColor=none;spacingLeft=4;spacingRight=4;whiteSpace=wrap;overflow=hidden;rotatable=0;points=[[0,0.5],[1,0.5]];portConstraint=eastwest;" parent="21ea969265ad0168-6" vertex="1">
          <mxGeometry y="26" width="160" height="44" as="geometry" />
        </mxCell>
        <mxCell id="21ea969265ad0168-14" value="&lt;div&gt;&lt;font face=&quot;Courier New&quot;&gt;TestBench.record&lt;/font&gt;&lt;/div&gt;" style="swimlane;html=1;fontStyle=0;childLayout=stackLayout;horizontal=1;startSize=26;fillColor=#e0e0e0;horizontalStack=0;resizeParent=1;resizeLast=0;collapsible=1;marginBottom=0;swimlaneFillColor=#ffffff;align=center;rounded=1;shadow=0;comic=0;labelBackgroundColor=none;strokeWidth=1;fontFamily=Verdana;fontSize=12" parent="1" vertex="1">
          <mxGeometry x="330" y="160" width="160" height="142" as="geometry" />
        </mxCell>
        <mxCell id="21ea969265ad0168-15" value="Realise run configurations from YAML matrix" style="text;html=1;strokeColor=none;fillColor=none;spacingLeft=4;spacingRight=4;whiteSpace=wrap;overflow=hidden;rotatable=0;points=[[0,0.5],[1,0.5]];portConstraint=eastwest;" parent="21ea969265ad0168-14" vertex="1">
          <mxGeometry y="26" width="160" height="44" as="geometry" />
        </mxCell>
        <mxCell id="21ea969265ad0168-16" value="Spawn jobs from concrete run configurations" style="text;html=1;strokeColor=none;fillColor=none;spacingLeft=4;spacingRight=4;whiteSpace=wrap;overflow=hidden;rotatable=0;points=[[0,0.5],[1,0.5]];portConstraint=eastwest;" parent="21ea969265ad0168-14" vertex="1">
          <mxGeometry y="70" width="160" height="40" as="geometry" />
        </mxCell>
        <mxCell id="21ea969265ad0168-17" value="Write out CSV metadata file" style="text;html=1;strokeColor=none;fillColor=none;spacingLeft=4;spacingRight=4;whiteSpace=wrap;overflow=hidden;rotatable=0;points=[[0,0.5],[1,0.5]];portConstraint=eastwest;" parent="21ea969265ad0168-14" vertex="1">
          <mxGeometry y="110" width="160" height="32" as="geometry" />
        </mxCell>
        <mxCell id="21ea969265ad0168-36" style="edgeStyle=orthogonalEdgeStyle;html=1;labelBackgroundColor=none;startFill=0;startSize=8;endFill=1;endSize=8;fontFamily=Verdana;fontSize=12;" parent="1" source="21ea969265ad0168-6" target="21ea969265ad0168-14" edge="1">
          <mxGeometry relative="1" as="geometry" />
        </mxCell>
        <mxCell id="pJUrE8_s9Y_PVnaXfiHp-2" value="&lt;font face=&quot;Courier New&quot;&gt;metadata.csv&lt;/font&gt;" style="shape=note;whiteSpace=wrap;html=1;backgroundOutline=1;darkOpacity=0.05;" vertex="1" parent="1">
          <mxGeometry x="160" y="340" width="100" height="110" as="geometry" />
        </mxCell>
        <mxCell id="pJUrE8_s9Y_PVnaXfiHp-4" style="edgeStyle=orthogonalEdgeStyle;html=1;labelBackgroundColor=none;startFill=0;startSize=8;endFill=1;endSize=8;fontFamily=Verdana;fontSize=12;" edge="1" parent="1">
          <mxGeometry relative="1" as="geometry">
            <mxPoint x="440" y="120" as="sourcePoint" />
            <mxPoint x="440" y="160" as="targetPoint" />
          </mxGeometry>
        </mxCell>
        <mxCell id="pJUrE8_s9Y_PVnaXfiHp-5" style="edgeStyle=orthogonalEdgeStyle;html=1;labelBackgroundColor=none;startFill=0;startSize=8;endFill=1;endSize=8;fontFamily=Verdana;fontSize=12;" edge="1" parent="1">
          <mxGeometry relative="1" as="geometry">
            <mxPoint x="380" y="120" as="sourcePoint" />
            <mxPoint x="380" y="160" as="targetPoint" />
          </mxGeometry>
        </mxCell>
        <mxCell id="pJUrE8_s9Y_PVnaXfiHp-6" style="edgeStyle=orthogonalEdgeStyle;rounded=0;orthogonalLoop=1;jettySize=auto;html=1;exitX=0.5;exitY=1;exitDx=0;exitDy=0;entryX=0;entryY=0.5;entryDx=0;entryDy=0;dashed=1;dashPattern=8 8;exitPerimeter=0;" edge="1" parent="1" source="pJUrE8_s9Y_PVnaXfiHp-2" target="pJUrE8_s9Y_PVnaXfiHp-33">
          <mxGeometry relative="1" as="geometry">
            <mxPoint x="330" y="450" as="sourcePoint" />
            <mxPoint x="141" y="482.95000000000005" as="targetPoint" />
          </mxGeometry>
        </mxCell>
        <mxCell id="pJUrE8_s9Y_PVnaXfiHp-7" value="&lt;font face=&quot;Courier New&quot;&gt;RunConfigurationModel.realise&lt;br&gt;&lt;/font&gt;" style="swimlane;html=1;fontStyle=0;childLayout=stackLayout;horizontal=1;startSize=26;fillColor=#e0e0e0;horizontalStack=0;resizeParent=1;resizeLast=0;collapsible=1;marginBottom=0;swimlaneFillColor=#ffffff;align=center;rounded=1;shadow=0;comic=0;labelBackgroundColor=none;strokeWidth=1;fontFamily=Verdana;fontSize=12" vertex="1" parent="1">
          <mxGeometry x="610" y="134" width="230" height="52" as="geometry" />
        </mxCell>
        <mxCell id="pJUrE8_s9Y_PVnaXfiHp-8" value="Build run model from instantiation" style="text;html=1;strokeColor=none;fillColor=none;spacingLeft=4;spacingRight=4;whiteSpace=wrap;overflow=hidden;rotatable=0;points=[[0,0.5],[1,0.5]];portConstraint=eastwest;" vertex="1" parent="pJUrE8_s9Y_PVnaXfiHp-7">
          <mxGeometry y="26" width="230" height="26" as="geometry" />
        </mxCell>
        <mxCell id="pJUrE8_s9Y_PVnaXfiHp-30" value="&lt;font face=&quot;Courier New&quot;&gt;TestPlan.report_all&lt;/font&gt;" style="swimlane;html=1;fontStyle=0;childLayout=stackLayout;horizontal=1;startSize=26;fillColor=#e0e0e0;horizontalStack=0;resizeParent=1;resizeLast=0;collapsible=1;marginBottom=0;swimlaneFillColor=#ffffff;align=center;rounded=1;shadow=0;comic=0;labelBackgroundColor=none;strokeWidth=1;fontFamily=Verdana;fontSize=12" vertex="1" parent="1">
          <mxGeometry x="330" y="350" width="160" height="70" as="geometry" />
        </mxCell>
        <mxCell id="pJUrE8_s9Y_PVnaXfiHp-31" value="Report results for all enabled test benches" style="text;html=1;strokeColor=none;fillColor=none;spacingLeft=4;spacingRight=4;whiteSpace=wrap;overflow=hidden;rotatable=0;points=[[0,0.5],[1,0.5]];portConstraint=eastwest;" vertex="1" parent="pJUrE8_s9Y_PVnaXfiHp-30">
          <mxGeometry y="26" width="160" height="44" as="geometry" />
        </mxCell>
        <mxCell id="pJUrE8_s9Y_PVnaXfiHp-32" value="&lt;div&gt;&lt;font face=&quot;Courier New&quot;&gt;TestBench.report&lt;/font&gt;&lt;/div&gt;" style="swimlane;html=1;fontStyle=0;childLayout=stackLayout;horizontal=1;startSize=26;fillColor=#e0e0e0;horizontalStack=0;resizeParent=1;resizeLast=0;collapsible=1;marginBottom=0;swimlaneFillColor=#ffffff;align=center;rounded=1;shadow=0;comic=0;labelBackgroundColor=none;strokeWidth=1;fontFamily=Verdana;fontSize=12" vertex="1" parent="1">
          <mxGeometry x="330" y="460" width="160" height="260" as="geometry" />
        </mxCell>
        <mxCell id="pJUrE8_s9Y_PVnaXfiHp-33" value="Read data from CSV metadata file" style="text;html=1;strokeColor=none;fillColor=none;spacingLeft=4;spacingRight=4;whiteSpace=wrap;overflow=hidden;rotatable=0;points=[[0,0.5],[1,0.5]];portConstraint=eastwest;" vertex="1" parent="pJUrE8_s9Y_PVnaXfiHp-32">
          <mxGeometry y="26" width="160" height="44" as="geometry" />
        </mxCell>
        <mxCell id="pJUrE8_s9Y_PVnaXfiHp-34" value="Get run outputs for all rows in CSV metadata file" style="text;html=1;strokeColor=none;fillColor=none;spacingLeft=4;spacingRight=4;whiteSpace=wrap;overflow=hidden;rotatable=0;points=[[0,0.5],[1,0.5]];portConstraint=eastwest;" vertex="1" parent="pJUrE8_s9Y_PVnaXfiHp-32">
          <mxGeometry y="70" width="160" height="40" as="geometry" />
        </mxCell>
        <mxCell id="pJUrE8_s9Y_PVnaXfiHp-35" value="Extract run metrics from all run outputs" style="text;html=1;strokeColor=none;fillColor=none;spacingLeft=4;spacingRight=4;whiteSpace=wrap;overflow=hidden;rotatable=0;points=[[0,0.5],[1,0.5]];portConstraint=eastwest;" vertex="1" parent="pJUrE8_s9Y_PVnaXfiHp-32">
          <mxGeometry y="110" width="160" height="40" as="geometry" />
        </mxCell>
        <mxCell id="pJUrE8_s9Y_PVnaXfiHp-41" value="Aggregate run metrics across statistical re-runs" style="text;html=1;strokeColor=none;fillColor=none;spacingLeft=4;spacingRight=4;whiteSpace=wrap;overflow=hidden;rotatable=0;points=[[0,0.5],[1,0.5]];portConstraint=eastwest;" vertex="1" parent="pJUrE8_s9Y_PVnaXfiHp-32">
          <mxGeometry y="150" width="160" height="40" as="geometry" />
        </mxCell>
        <mxCell id="pJUrE8_s9Y_PVnaXfiHp-39" value="Evaluate derived metrics" style="text;html=1;strokeColor=none;fillColor=none;spacingLeft=4;spacingRight=4;whiteSpace=wrap;overflow=hidden;rotatable=0;points=[[0,0.5],[1,0.5]];portConstraint=eastwest;" vertex="1" parent="pJUrE8_s9Y_PVnaXfiHp-32">
          <mxGeometry y="190" width="160" height="30" as="geometry" />
        </mxCell>
        <mxCell id="pJUrE8_s9Y_PVnaXfiHp-42" value="Render plots from YAML analysis configuration" style="text;html=1;strokeColor=none;fillColor=none;spacingLeft=4;spacingRight=4;whiteSpace=wrap;overflow=hidden;rotatable=0;points=[[0,0.5],[1,0.5]];portConstraint=eastwest;" vertex="1" parent="pJUrE8_s9Y_PVnaXfiHp-32">
          <mxGeometry y="220" width="160" height="40" as="geometry" />
        </mxCell>
        <mxCell id="pJUrE8_s9Y_PVnaXfiHp-36" style="edgeStyle=orthogonalEdgeStyle;html=1;labelBackgroundColor=none;startFill=0;startSize=8;endFill=1;endSize=8;fontFamily=Verdana;fontSize=12;" edge="1" parent="1" source="pJUrE8_s9Y_PVnaXfiHp-30" target="pJUrE8_s9Y_PVnaXfiHp-32">
          <mxGeometry relative="1" as="geometry" />
        </mxCell>
        <mxCell id="pJUrE8_s9Y_PVnaXfiHp-37" style="edgeStyle=orthogonalEdgeStyle;html=1;labelBackgroundColor=none;startFill=0;startSize=8;endFill=1;endSize=8;fontFamily=Verdana;fontSize=12;" edge="1" parent="1">
          <mxGeometry relative="1" as="geometry">
            <mxPoint x="440" y="420" as="sourcePoint" />
            <mxPoint x="440" y="460" as="targetPoint" />
          </mxGeometry>
        </mxCell>
        <mxCell id="pJUrE8_s9Y_PVnaXfiHp-38" style="edgeStyle=orthogonalEdgeStyle;html=1;labelBackgroundColor=none;startFill=0;startSize=8;endFill=1;endSize=8;fontFamily=Verdana;fontSize=12;" edge="1" parent="1">
          <mxGeometry relative="1" as="geometry">
            <mxPoint x="380" y="420" as="sourcePoint" />
            <mxPoint x="380" y="460" as="targetPoint" />
          </mxGeometry>
        </mxCell>
        <mxCell id="pJUrE8_s9Y_PVnaXfiHp-43" style="edgeStyle=orthogonalEdgeStyle;rounded=0;orthogonalLoop=1;jettySize=auto;html=1;exitX=0;exitY=0.5;exitDx=0;exitDy=0;entryX=0.5;entryY=0;entryDx=0;entryDy=0;entryPerimeter=0;dashed=1;dashPattern=8 8;" edge="1" parent="1" source="21ea969265ad0168-17" target="pJUrE8_s9Y_PVnaXfiHp-2">
          <mxGeometry relative="1" as="geometry">
            <mxPoint x="340" y="296" as="sourcePoint" />
            <mxPoint x="151" y="329" as="targetPoint" />
          </mxGeometry>
        </mxCell>
        <mxCell id="pJUrE8_s9Y_PVnaXfiHp-44" value="&lt;font face=&quot;Courier New&quot;&gt;RunConfiguration.run&lt;/font&gt;" style="swimlane;html=1;fontStyle=0;childLayout=stackLayout;horizontal=1;startSize=26;fillColor=#e0e0e0;horizontalStack=0;resizeParent=1;resizeLast=0;collapsible=1;marginBottom=0;swimlaneFillColor=#ffffff;align=center;rounded=1;shadow=0;comic=0;labelBackgroundColor=none;strokeWidth=1;fontFamily=Verdana;fontSize=12" vertex="1" parent="1">
          <mxGeometry x="645" y="202" width="160" height="70" as="geometry" />
        </mxCell>
        <mxCell id="pJUrE8_s9Y_PVnaXfiHp-45" value="Spawn Slurm jobs from run configuration objects" style="text;html=1;strokeColor=none;fillColor=none;spacingLeft=4;spacingRight=4;whiteSpace=wrap;overflow=hidden;rotatable=0;points=[[0,0.5],[1,0.5]];portConstraint=eastwest;" vertex="1" parent="pJUrE8_s9Y_PVnaXfiHp-44">
          <mxGeometry y="26" width="160" height="44" as="geometry" />
        </mxCell>
        <mxCell id="pJUrE8_s9Y_PVnaXfiHp-49" value="&lt;div&gt;&lt;font face=&quot;Courier New&quot;&gt;TestBench.run_configurations_metadata&lt;/font&gt;&lt;/div&gt;" style="swimlane;html=1;fontStyle=0;childLayout=stackLayout;horizontal=1;startSize=26;fillColor=#e0e0e0;horizontalStack=0;resizeParent=1;resizeLast=0;collapsible=1;marginBottom=0;swimlaneFillColor=#ffffff;align=center;rounded=1;shadow=0;comic=0;labelBackgroundColor=none;strokeWidth=1;fontFamily=Verdana;fontSize=12" vertex="1" parent="1">
          <mxGeometry x="585" y="350" width="280" height="54" as="geometry" />
        </mxCell>
        <mxCell id="pJUrE8_s9Y_PVnaXfiHp-50" value="Interact with run configuration data in a CSV file" style="text;html=1;strokeColor=none;fillColor=none;spacingLeft=4;spacingRight=4;whiteSpace=wrap;overflow=hidden;rotatable=0;points=[[0,0.5],[1,0.5]];portConstraint=eastwest;" vertex="1" parent="pJUrE8_s9Y_PVnaXfiHp-49">
          <mxGeometry y="26" width="280" height="24" as="geometry" />
        </mxCell>
        <mxCell id="pJUrE8_s9Y_PVnaXfiHp-51" style="edgeStyle=orthogonalEdgeStyle;rounded=0;orthogonalLoop=1;jettySize=auto;html=1;exitX=1;exitY=0.5;exitDx=0;exitDy=0;entryX=0;entryY=0.5;entryDx=0;entryDy=0;" edge="1" parent="1" source="21ea969265ad0168-15" target="pJUrE8_s9Y_PVnaXfiHp-8">
          <mxGeometry relative="1" as="geometry">
            <Array as="points">
              <mxPoint x="540" y="208" />
              <mxPoint x="540" y="173" />
            </Array>
          </mxGeometry>
        </mxCell>
        <mxCell id="pJUrE8_s9Y_PVnaXfiHp-52" style="edgeStyle=orthogonalEdgeStyle;rounded=0;orthogonalLoop=1;jettySize=auto;html=1;exitX=1;exitY=0.5;exitDx=0;exitDy=0;entryX=0;entryY=0.5;entryDx=0;entryDy=0;" edge="1" parent="1" source="21ea969265ad0168-16" target="pJUrE8_s9Y_PVnaXfiHp-45">
          <mxGeometry relative="1" as="geometry" />
        </mxCell>
        <mxCell id="pJUrE8_s9Y_PVnaXfiHp-53" style="edgeStyle=orthogonalEdgeStyle;rounded=0;orthogonalLoop=1;jettySize=auto;html=1;exitX=1;exitY=0.5;exitDx=0;exitDy=0;entryX=0;entryY=0.25;entryDx=0;entryDy=0;" edge="1" parent="1" source="21ea969265ad0168-17" target="pJUrE8_s9Y_PVnaXfiHp-49">
          <mxGeometry relative="1" as="geometry">
            <Array as="points">
              <mxPoint x="520" y="286" />
              <mxPoint x="520" y="364" />
            </Array>
          </mxGeometry>
        </mxCell>
        <mxCell id="pJUrE8_s9Y_PVnaXfiHp-55" style="edgeStyle=orthogonalEdgeStyle;rounded=0;orthogonalLoop=1;jettySize=auto;html=1;exitX=1;exitY=0.5;exitDx=0;exitDy=0;entryX=0;entryY=0.5;entryDx=0;entryDy=0;" edge="1" parent="1" source="pJUrE8_s9Y_PVnaXfiHp-33" target="pJUrE8_s9Y_PVnaXfiHp-50">
          <mxGeometry relative="1" as="geometry">
            <Array as="points">
              <mxPoint x="520" y="508" />
              <mxPoint x="520" y="388" />
            </Array>
          </mxGeometry>
        </mxCell>
        <mxCell id="pJUrE8_s9Y_PVnaXfiHp-56" value="&lt;div&gt;&lt;font face=&quot;Courier New&quot;&gt;TestBench.get_run_outputs&lt;/font&gt;&lt;/div&gt;" style="swimlane;html=1;fontStyle=0;childLayout=stackLayout;horizontal=1;startSize=26;fillColor=#e0e0e0;horizontalStack=0;resizeParent=1;resizeLast=0;collapsible=1;marginBottom=0;swimlaneFillColor=#ffffff;align=center;rounded=1;shadow=0;comic=0;labelBackgroundColor=none;strokeWidth=1;fontFamily=Verdana;fontSize=12" vertex="1" parent="1">
          <mxGeometry x="585" y="449" width="280" height="54" as="geometry" />
        </mxCell>
        <mxCell id="pJUrE8_s9Y_PVnaXfiHp-57" value="Read run output data from the specified files" style="text;html=1;strokeColor=none;fillColor=none;spacingLeft=4;spacingRight=4;whiteSpace=wrap;overflow=hidden;rotatable=0;points=[[0,0.5],[1,0.5]];portConstraint=eastwest;" vertex="1" parent="pJUrE8_s9Y_PVnaXfiHp-56">
          <mxGeometry y="26" width="280" height="24" as="geometry" />
        </mxCell>
        <mxCell id="pJUrE8_s9Y_PVnaXfiHp-58" value="&lt;div&gt;&lt;font face=&quot;Courier New&quot;&gt;TestBench.get_run_metrics&lt;/font&gt;&lt;/div&gt;" style="swimlane;html=1;fontStyle=0;childLayout=stackLayout;horizontal=1;startSize=26;fillColor=#e0e0e0;horizontalStack=0;resizeParent=1;resizeLast=0;collapsible=1;marginBottom=0;swimlaneFillColor=#ffffff;align=center;rounded=1;shadow=0;comic=0;labelBackgroundColor=none;strokeWidth=1;fontFamily=Verdana;fontSize=12" vertex="1" parent="1">
          <mxGeometry x="585" y="520" width="280" height="54" as="geometry" />
        </mxCell>
        <mxCell id="pJUrE8_s9Y_PVnaXfiHp-59" value="Use regular expressions to match metric patterns" style="text;html=1;strokeColor=none;fillColor=none;spacingLeft=4;spacingRight=4;whiteSpace=wrap;overflow=hidden;rotatable=0;points=[[0,0.5],[1,0.5]];portConstraint=eastwest;" vertex="1" parent="pJUrE8_s9Y_PVnaXfiHp-58">
          <mxGeometry y="26" width="280" height="24" as="geometry" />
        </mxCell>
        <mxCell id="pJUrE8_s9Y_PVnaXfiHp-60" value="&lt;div&gt;&lt;font face=&quot;Courier New&quot;&gt;TestBench.aggregate_run_metrics&lt;br&gt;&lt;/font&gt;&lt;/div&gt;" style="swimlane;html=1;fontStyle=0;childLayout=stackLayout;horizontal=1;startSize=26;fillColor=#e0e0e0;horizontalStack=0;resizeParent=1;resizeLast=0;collapsible=1;marginBottom=0;swimlaneFillColor=#ffffff;align=center;rounded=1;shadow=0;comic=0;labelBackgroundColor=none;strokeWidth=1;fontFamily=Verdana;fontSize=12" vertex="1" parent="1">
          <mxGeometry x="585" y="592" width="280" height="54" as="geometry" />
        </mxCell>
        <mxCell id="pJUrE8_s9Y_PVnaXfiHp-61" value="Combine metrics with shared run configurations" style="text;html=1;strokeColor=none;fillColor=none;spacingLeft=4;spacingRight=4;whiteSpace=wrap;overflow=hidden;rotatable=0;points=[[0,0.5],[1,0.5]];portConstraint=eastwest;" vertex="1" parent="pJUrE8_s9Y_PVnaXfiHp-60">
          <mxGeometry y="26" width="280" height="24" as="geometry" />
        </mxCell>
        <mxCell id="pJUrE8_s9Y_PVnaXfiHp-62" value="&lt;div&gt;&lt;font face=&quot;Courier New&quot;&gt;TestBench.calculate_derived_metrics&lt;/font&gt;&lt;/div&gt;" style="swimlane;html=1;fontStyle=0;childLayout=stackLayout;horizontal=1;startSize=26;fillColor=#e0e0e0;horizontalStack=0;resizeParent=1;resizeLast=0;collapsible=1;marginBottom=0;swimlaneFillColor=#ffffff;align=center;rounded=1;shadow=0;comic=0;labelBackgroundColor=none;strokeWidth=1;fontFamily=Verdana;fontSize=12" vertex="1" parent="1">
          <mxGeometry x="585" y="663" width="280" height="54" as="geometry" />
        </mxCell>
        <mxCell id="pJUrE8_s9Y_PVnaXfiHp-63" value="Leverage meta-programming for derived metrics" style="text;html=1;strokeColor=none;fillColor=none;spacingLeft=4;spacingRight=4;whiteSpace=wrap;overflow=hidden;rotatable=0;points=[[0,0.5],[1,0.5]];portConstraint=eastwest;" vertex="1" parent="pJUrE8_s9Y_PVnaXfiHp-62">
          <mxGeometry y="26" width="280" height="24" as="geometry" />
        </mxCell>
        <mxCell id="pJUrE8_s9Y_PVnaXfiHp-64" value="&lt;font face=&quot;Courier New&quot;&gt;plot&lt;/font&gt;" style="swimlane;html=1;fontStyle=0;childLayout=stackLayout;horizontal=1;startSize=26;fillColor=#e0e0e0;horizontalStack=0;resizeParent=1;resizeLast=0;collapsible=1;marginBottom=0;swimlaneFillColor=#ffffff;align=center;rounded=1;shadow=0;comic=0;labelBackgroundColor=none;strokeWidth=1;fontFamily=Verdana;fontSize=12" vertex="1" parent="1">
          <mxGeometry x="585" y="736" width="280" height="54" as="geometry" />
        </mxCell>
        <mxCell id="pJUrE8_s9Y_PVnaXfiHp-65" value="Use plotting backends to draw the specified graph" style="text;html=1;strokeColor=none;fillColor=none;spacingLeft=4;spacingRight=4;whiteSpace=wrap;overflow=hidden;rotatable=0;points=[[0,0.5],[1,0.5]];portConstraint=eastwest;" vertex="1" parent="pJUrE8_s9Y_PVnaXfiHp-64">
          <mxGeometry y="26" width="280" height="24" as="geometry" />
        </mxCell>
        <mxCell id="pJUrE8_s9Y_PVnaXfiHp-67" style="edgeStyle=orthogonalEdgeStyle;rounded=0;orthogonalLoop=1;jettySize=auto;html=1;exitX=1;exitY=0.5;exitDx=0;exitDy=0;entryX=0;entryY=0.5;entryDx=0;entryDy=0;" edge="1" parent="1" source="pJUrE8_s9Y_PVnaXfiHp-34" target="pJUrE8_s9Y_PVnaXfiHp-57">
          <mxGeometry relative="1" as="geometry">
            <Array as="points">
              <mxPoint x="540" y="550" />
              <mxPoint x="540" y="488" />
            </Array>
          </mxGeometry>
        </mxCell>
        <mxCell id="pJUrE8_s9Y_PVnaXfiHp-68" style="edgeStyle=orthogonalEdgeStyle;rounded=0;orthogonalLoop=1;jettySize=auto;html=1;exitX=1;exitY=0.5;exitDx=0;exitDy=0;entryX=0;entryY=0.5;entryDx=0;entryDy=0;" edge="1" parent="1" source="pJUrE8_s9Y_PVnaXfiHp-35" target="pJUrE8_s9Y_PVnaXfiHp-59">
          <mxGeometry relative="1" as="geometry">
            <Array as="points">
              <mxPoint x="560" y="590" />
              <mxPoint x="560" y="558" />
            </Array>
          </mxGeometry>
        </mxCell>
        <mxCell id="pJUrE8_s9Y_PVnaXfiHp-69" style="edgeStyle=orthogonalEdgeStyle;rounded=0;orthogonalLoop=1;jettySize=auto;html=1;exitX=1;exitY=0.5;exitDx=0;exitDy=0;entryX=0;entryY=0.5;entryDx=0;entryDy=0;" edge="1" parent="1" source="pJUrE8_s9Y_PVnaXfiHp-41" target="pJUrE8_s9Y_PVnaXfiHp-61">
          <mxGeometry relative="1" as="geometry" />
        </mxCell>
        <mxCell id="pJUrE8_s9Y_PVnaXfiHp-70" style="edgeStyle=orthogonalEdgeStyle;rounded=0;orthogonalLoop=1;jettySize=auto;html=1;exitX=1;exitY=0.5;exitDx=0;exitDy=0;entryX=0;entryY=0.5;entryDx=0;entryDy=0;" edge="1" parent="1" source="pJUrE8_s9Y_PVnaXfiHp-39" target="pJUrE8_s9Y_PVnaXfiHp-63">
          <mxGeometry relative="1" as="geometry">
            <Array as="points">
              <mxPoint x="560" y="665" />
              <mxPoint x="560" y="701" />
            </Array>
          </mxGeometry>
        </mxCell>
        <mxCell id="pJUrE8_s9Y_PVnaXfiHp-71" style="edgeStyle=orthogonalEdgeStyle;rounded=0;orthogonalLoop=1;jettySize=auto;html=1;exitX=1;exitY=0.5;exitDx=0;exitDy=0;entryX=0;entryY=0.5;entryDx=0;entryDy=0;" edge="1" parent="1" source="pJUrE8_s9Y_PVnaXfiHp-42" target="pJUrE8_s9Y_PVnaXfiHp-65">
          <mxGeometry relative="1" as="geometry" />
        </mxCell>
      </root>
    </mxGraphModel>
  </diagram>
</mxfile>
